<?xml version="1.0" standalone="no"?>
<!DOCTYPE svg PUBLIC "-//W3C//DTD SVG 20010904//EN"
 "http://www.w3.org/TR/2001/REC-SVG-20010904/DTD/svg10.dtd">
<svg version="1.0" xmlns="http://www.w3.org/2000/svg"
 width="484.000000pt" height="670.000000pt" viewBox="0 0 484.000000 670.000000"
 preserveAspectRatio="xMidYMid meet">

<g transform="translate(0.000000,670.000000) scale(0.100000,-0.100000)"
fill="#000000" stroke="none">
<path d="M350 3370 l0 -3000 2070 0 2070 0 0 3000 0 3000 -2070 0 -2070 0 0
-3000z m227 2883 c-8 -133 -33 -229 -82 -319 -41 -74 -102 -154 -116 -154 -17
0 -10 87 9 111 76 100 112 208 119 357 l6 112 35 0 35 0 -6 -107z m233 99 c0
-4 -4 -22 -10 -40 -5 -19 -10 -79 -11 -135 -3 -140 -22 -226 -74 -332 -57
-117 -80 -145 -215 -270 -76 -69 -118 -105 -125 -105 -3 0 -5 19 -5 43 0 40 4
47 52 88 204 172 285 312 294 513 4 89 14 197 20 219 1 4 2 12 3 17 1 12 71
14 71 2z m236 -44 c-33 -75 -44 -136 -51 -273 -12 -274 -88 -407 -374 -655
-106 -92 -166 -156 -212 -224 l-39 -58 0 65 c0 60 3 68 36 109 42 51 121 126
184 176 25 20 86 77 135 127 138 137 190 248 200 423 10 178 17 228 37 292 20
63 26 70 68 70 l39 0 -23 -52z m314 48 c0 -3 -22 -34 -50 -70 -70 -93 -96
-182 -103 -351 -3 -72 -13 -159 -22 -195 -15 -60 -90 -215 -120 -250 -32 -36
-193 -190 -220 -211 -16 -12 -72 -64 -124 -116 -137 -140 -178 -236 -186 -448
-5 -112 -6 -122 -26 -210 -12 -55 -77 -181 -115 -223 l-23 -27 -1 55 c0 41 7
66 26 100 54 94 64 141 79 390 7 112 23 170 74 260 43 76 154 194 291 310 125
106 188 180 235 275 51 105 55 122 61 275 8 185 34 282 110 402 22 35 28 38
69 38 25 0 45 -2 45 -4z m330 2 c0 -2 -40 -44 -88 -93 -78 -80 -137 -162 -148
-205 -2 -8 -10 -41 -19 -72 -8 -31 -17 -108 -20 -170 -3 -62 -7 -124 -10 -138
-31 -157 -87 -262 -205 -380 -47 -47 -118 -115 -159 -150 -103 -90 -132 -119
-180 -180 -83 -105 -108 -188 -115 -375 -6 -150 -25 -230 -82 -335 -50 -92
-83 -131 -206 -247 -36 -35 -71 -63 -77 -63 -6 0 -11 17 -11 38 0 34 9 45 95
130 97 95 148 171 180 266 24 71 25 77 35 241 5 83 16 173 24 200 39 125 139
255 301 390 116 97 230 218 264 281 63 114 70 150 86 404 3 47 11 108 18 135
21 76 90 190 159 261 59 61 64 64 110 64 26 0 48 -1 48 -2z m340 -4 c0 -4 -8
-14 -19 -23 -336 -293 -376 -359 -386 -636 -3 -71 -11 -152 -19 -180 -9 -27
-16 -54 -16 -60 -2 -16 -80 -159 -104 -189 -28 -37 -183 -189 -221 -217 -16
-12 -71 -63 -120 -113 -87 -88 -143 -168 -160 -231 -5 -16 -9 -32 -10 -35 -9
-32 -17 -103 -20 -185 -6 -124 -11 -161 -35 -233 -45 -140 -135 -254 -339
-432 -87 -75 -157 -145 -178 -177 -23 -35 -33 -28 -33 25 0 44 5 54 43 94 23
25 78 76 122 113 137 118 242 230 277 297 51 99 65 148 73 263 2 39 7 104 10
145 15 204 99 333 365 560 225 192 300 338 300 589 1 226 85 381 315 579 54
47 65 52 108 52 26 0 47 -3 47 -6z m320 -4 c0 -11 -102 -113 -175 -173 -161
-134 -286 -285 -310 -372 -5 -16 -9 -32 -10 -35 -9 -32 -17 -103 -20 -185 -8
-169 -23 -228 -90 -355 -41 -78 -134 -180 -284 -310 -234 -204 -287 -299 -297
-534 -5 -133 -12 -189 -25 -223 -6 -15 -12 -36 -14 -46 -5 -21 -76 -152 -102
-186 -26 -34 -130 -136 -188 -184 -27 -23 -93 -85 -145 -137 -107 -106 -150
-173 -175 -270 -10 -42 -17 -99 -20 -182 -8 -169 -26 -243 -87 -353 l-33 -60
-3 57 c-2 35 4 76 13 105 9 27 19 57 21 68 18 94 21 124 23 202 5 209 57 331
205 478 50 50 117 113 149 139 103 86 196 187 233 253 55 98 74 178 84 348 5
83 16 173 24 200 39 125 139 254 301 390 189 158 286 284 320 418 12 43 15 66
20 132 2 39 7 104 10 145 15 204 91 323 364 560 34 30 79 70 99 88 28 24 46
32 74 32 21 0 38 -4 38 -10z m263 -42 c-29 -54 -151 -184 -262 -278 -71 -60
-173 -163 -209 -209 -28 -37 -72 -131 -78 -168 -2 -16 -7 -35 -10 -43 -3 -7
-7 -61 -9 -120 -6 -136 -12 -179 -36 -253 -18 -56 -80 -175 -111 -212 -28 -34
-135 -138 -183 -178 -100 -83 -242 -233 -272 -287 -24 -44 -46 -100 -44 -117
0 -2 -5 -17 -10 -35 -5 -18 -12 -80 -14 -138 -8 -186 -22 -242 -90 -370 -41
-77 -145 -190 -289 -315 -76 -66 -158 -148 -194 -194 -24 -32 -70 -126 -77
-160 -3 -12 -7 -31 -10 -43 -3 -13 -8 -61 -11 -108 -9 -169 -13 -206 -34 -269
-19 -59 -80 -178 -112 -216 -29 -35 -173 -175 -180 -175 -5 0 -8 18 -8 40 0
35 7 47 75 116 87 89 145 187 170 288 9 37 20 132 25 210 5 77 16 164 24 191
36 114 114 222 251 345 69 62 196 174 204 180 20 15 84 103 114 156 30 54 43
87 53 134 16 76 21 121 23 197 5 209 57 331 205 478 50 50 116 111 146 137
104 86 199 190 236 255 54 97 73 177 84 348 11 172 18 202 71 305 42 81 132
182 254 285 113 96 193 175 227 226 30 44 37 49 71 49 l38 0 -28 -52z m268 4
c-46 -126 -157 -265 -303 -380 -67 -54 -225 -219 -251 -263 -50 -88 -75 -195
-76 -336 0 -118 -18 -190 -73 -302 -44 -89 -64 -116 -142 -195 -50 -50 -118
-114 -150 -141 -65 -55 -168 -158 -204 -205 -30 -38 -78 -145 -86 -190 -4 -19
-9 -73 -11 -120 -10 -172 -14 -206 -35 -269 -19 -60 -81 -179 -112 -216 -34
-41 -121 -126 -184 -179 -109 -95 -237 -227 -266 -277 -52 -88 -78 -202 -78
-340 0 -117 -16 -185 -72 -298 -46 -93 -63 -116 -153 -205 -55 -56 -123 -120
-151 -143 -28 -23 -74 -65 -102 -93 -28 -27 -53 -50 -56 -50 -3 0 -6 20 -6 43
0 48 5 55 85 127 77 69 197 174 204 180 4 3 27 30 50 59 91 116 130 231 137
401 11 245 59 361 212 510 48 47 114 108 146 135 168 140 257 262 290 398 9
38 21 132 26 210 11 165 18 196 71 297 49 95 104 153 328 350 95 84 96 84 141
144 43 57 98 168 106 213 2 15 7 35 10 43 3 8 7 64 10 125 7 161 28 257 74
341 22 38 49 81 60 95 52 59 91 98 155 154 111 96 176 157 225 209 48 52 119
170 120 199 0 13 9 17 39 17 l39 0 -17 -48z m243 6 c-10 -66 -32 -125 -77
-212 -45 -85 -140 -191 -277 -307 -143 -122 -217 -208 -259 -301 -39 -84 -40
-95 -55 -343 -6 -97 -32 -180 -84 -273 -54 -95 -90 -136 -232 -260 -122 -108
-243 -234 -272 -283 -52 -88 -78 -201 -78 -334 0 -123 -16 -189 -72 -304 -46
-93 -63 -116 -152 -205 -56 -56 -123 -119 -150 -141 -55 -44 -158 -147 -194
-195 -29 -37 -78 -145 -87 -190 -3 -19 -9 -84 -11 -145 -6 -126 -14 -178 -43
-273 -10 -34 -79 -158 -103 -187 -36 -44 -121 -126 -183 -179 -109 -93 -238
-226 -267 -277 -52 -88 -78 -201 -78 -334 0 -107 -15 -186 -51 -260 l-29 -60
6 125 c13 307 17 349 34 417 10 40 35 102 55 139 39 70 169 209 280 300 219
180 297 320 310 560 3 55 8 117 10 139 14 156 94 287 270 445 78 70 197 174
204 180 21 15 97 122 121 170 43 84 62 171 67 305 3 66 13 152 23 192 18 72
69 176 110 223 66 76 114 122 224 215 225 189 298 320 311 561 3 55 8 117 10
139 15 168 110 311 320 489 141 119 231 221 275 309 22 45 43 93 45 107 18 96
15 90 51 90 l34 0 -6 -42z m213 -40 c-3 -46 -8 -93 -11 -105 -3 -13 -8 -31
-10 -40 -14 -55 -28 -86 -64 -150 -51 -91 -127 -175 -262 -290 -249 -212 -315
-329 -319 -570 -2 -146 -16 -206 -73 -321 -41 -85 -65 -118 -132 -186 -44 -46
-115 -112 -156 -147 -143 -122 -217 -208 -259 -301 -38 -84 -39 -86 -56 -335
-4 -62 -6 -78 -19 -130 -14 -55 -28 -86 -64 -150 -53 -95 -109 -157 -238 -267
-110 -95 -237 -227 -267 -278 -48 -83 -69 -162 -73 -288 -7 -181 -19 -233 -76
-349 -46 -93 -63 -116 -152 -205 -56 -56 -123 -119 -150 -141 -54 -44 -157
-147 -194 -195 -34 -43 -79 -148 -90 -208 -5 -28 -10 -92 -11 -142 -1 -49 -4
-101 -7 -115 -20 -117 -34 -157 -82 -242 -45 -80 -109 -157 -180 -217 l-22
-19 0 44 c0 39 6 50 55 104 68 74 127 179 148 265 9 36 19 119 22 185 14 272
75 387 315 595 280 242 346 357 357 625 6 147 24 230 70 315 36 67 112 162
172 215 19 16 39 35 45 40 6 6 38 33 71 60 164 137 255 262 288 396 9 36 19
115 22 175 10 186 22 240 77 339 44 79 113 156 238 265 280 244 345 357 356
620 3 69 13 154 21 190 15 64 81 200 112 231 9 9 32 34 52 55 19 21 66 66 104
99 197 171 245 221 297 309 50 84 86 221 88 334 0 7 13 12 31 12 l32 0 -6 -82z
m218 15 c-3 -38 -7 -106 -9 -153 -11 -203 -109 -358 -361 -575 -59 -51 -147
-137 -198 -196 -22 -25 -64 -109 -82 -163 -8 -27 -18 -90 -21 -140 -7 -127
-13 -197 -19 -223 -21 -90 -31 -116 -73 -190 -53 -94 -91 -138 -229 -259 -278
-247 -337 -337 -349 -539 -2 -44 -6 -114 -9 -156 -8 -150 -82 -297 -219 -434
-50 -50 -112 -108 -137 -128 -52 -40 -173 -161 -205 -204 -62 -83 -93 -175
-100 -297 -10 -192 -14 -218 -42 -312 -13 -43 -84 -165 -118 -204 -47 -54 -96
-101 -174 -170 -215 -189 -272 -258 -309 -377 -21 -65 -25 -95 -35 -278 -8
-126 -24 -182 -92 -302 -37 -67 -172 -212 -274 -294 -25 -21 -63 -54 -85 -75
l-40 -39 -3 45 c-4 45 -3 45 75 115 150 134 239 230 278 299 60 107 72 159 81
341 10 219 58 329 208 480 50 51 118 114 151 141 160 131 257 264 288 399 9
39 19 120 22 180 5 91 12 167 20 195 1 3 5 19 10 35 27 100 128 229 285 365
279 240 345 357 356 620 2 69 12 154 20 190 16 65 82 201 113 231 9 9 32 34
52 55 39 42 74 74 184 169 221 190 286 313 300 560 3 55 8 118 10 140 20 165
108 298 316 475 275 235 345 367 348 658 l1 82 34 0 34 0 -3 -67z m245 60 c0
-5 -7 -28 -15 -52 -9 -23 -18 -84 -21 -135 -10 -192 -14 -218 -42 -312 -13
-43 -84 -165 -118 -204 -38 -43 -138 -139 -194 -187 -93 -79 -191 -178 -225
-227 -64 -93 -86 -172 -95 -341 -11 -189 -23 -239 -91 -362 -44 -80 -140 -184
-274 -298 -61 -52 -157 -147 -199 -196 -52 -62 -95 -185 -102 -293 -12 -211
-12 -210 -28 -273 -14 -55 -28 -86 -64 -150 -53 -94 -107 -155 -238 -268 -286
-248 -340 -342 -345 -606 -4 -207 -71 -361 -224 -514 -49 -50 -110 -107 -135
-127 -52 -41 -175 -165 -206 -205 -60 -81 -93 -175 -100 -287 -12 -211 -12
-210 -28 -273 -14 -55 -27 -86 -63 -149 -56 -99 -101 -149 -244 -274 -41 -35
-114 -104 -162 -152 -77 -77 -92 -88 -123 -88 l-35 0 17 32 c18 35 178 198
264 268 149 122 252 261 279 375 19 80 20 92 26 209 3 61 8 122 10 136 20 96
29 121 73 197 44 74 115 152 232 253 197 170 289 285 325 406 22 75 25 100 31
229 3 66 12 147 20 180 15 60 80 191 112 224 9 10 33 35 53 57 39 42 76 76
184 169 185 158 257 268 290 443 2 13 7 71 10 130 4 88 12 160 20 192 32 131
130 262 305 410 263 222 334 349 346 615 3 72 13 157 21 190 15 61 82 197 112
226 9 9 32 34 52 55 38 42 73 73 184 169 122 105 174 164 225 254 47 83 67
166 75 306 7 125 11 165 26 218 9 34 13 37 44 37 19 0 35 -3 35 -7z m250 -40
c-55 -88 -73 -156 -77 -288 -9 -307 -86 -451 -368 -690 -60 -51 -156 -146
-197 -195 -56 -66 -97 -183 -104 -295 -12 -207 -14 -219 -28 -270 -2 -5 -6
-23 -11 -40 -4 -16 -28 -65 -52 -108 -58 -103 -91 -141 -230 -263 -129 -113
-248 -236 -277 -286 -31 -53 -62 -136 -70 -188 -3 -19 -6 -82 -7 -140 -4 -254
-94 -414 -361 -644 -112 -96 -200 -189 -236 -250 -49 -82 -70 -176 -73 -320
-2 -124 -33 -247 -86 -341 -54 -98 -98 -147 -243 -275 -218 -192 -268 -253
-311 -381 -21 -64 -27 -100 -28 -186 -3 -166 -26 -259 -93 -381 -43 -79 -159
-205 -283 -307 -33 -28 -68 -58 -77 -68 -17 -16 -108 -26 -108 -10 0 7 63 67
134 127 115 95 243 232 279 297 59 105 74 170 82 354 9 211 60 324 213 475 54
52 122 115 152 140 149 123 252 261 279 375 19 80 20 92 26 209 3 61 8 122 10
136 20 96 29 121 73 197 43 74 124 162 242 262 185 158 280 278 315 397 20 71
24 95 30 230 3 67 12 148 21 180 16 62 79 189 111 221 10 11 34 37 54 59 39
42 76 76 184 169 187 160 257 267 290 444 2 13 7 71 10 130 4 87 12 162 20
191 1 3 5 19 10 35 28 103 135 239 295 375 120 102 228 217 265 284 53 95 72
175 80 328 7 154 16 198 58 291 l30 67 43 0 43 0 -29 -47z m340 43 c0 -2 -19
-24 -42 -49 -127 -132 -164 -231 -169 -441 -5 -252 -104 -432 -345 -628 -22
-18 -82 -75 -135 -128 -142 -143 -185 -240 -188 -430 -6 -287 -86 -437 -366
-675 -173 -149 -238 -231 -276 -349 -18 -57 -23 -96 -34 -271 -6 -109 -34
-206 -84 -293 -57 -99 -89 -135 -232 -262 -287 -253 -344 -349 -348 -580 -3
-165 -26 -257 -93 -378 -43 -79 -159 -205 -283 -307 -52 -44 -145 -136 -186
-184 -29 -33 -62 -98 -81 -156 -19 -60 -23 -89 -33 -260 -7 -119 -33 -214 -84
-303 -48 -83 -59 -98 -122 -161 -114 -114 -124 -121 -181 -121 l-53 1 70 62
c126 111 192 186 231 260 21 40 39 74 39 77 1 3 7 23 13 45 16 56 21 95 27
215 8 165 20 214 79 321 36 66 152 193 241 264 100 80 231 219 268 286 59 106
69 150 82 364 9 143 14 164 66 270 43 89 59 110 147 195 53 52 121 115 150
138 117 98 191 181 235 267 17 33 32 62 32 65 1 3 7 23 13 45 17 62 22 95 27
206 3 85 11 157 20 189 1 3 5 19 10 35 28 103 136 240 295 375 117 99 228 218
264 283 58 103 70 158 81 352 3 50 7 110 11 135 7 50 80 211 114 250 68 78
115 123 245 235 186 159 257 267 290 444 2 13 7 74 10 135 3 61 8 122 10 136
10 50 14 66 23 95 14 46 74 150 113 194 31 36 39 40 82 40 26 1 47 -1 47 -3z
m54 -318 c-41 -96 -51 -145 -53 -254 -5 -288 -86 -439 -366 -679 -174 -150
-239 -231 -276 -349 -18 -56 -22 -88 -34 -268 -6 -108 -29 -189 -79 -284 -55
-103 -104 -159 -241 -277 -33 -29 -104 -96 -158 -149 -140 -140 -183 -236
-186 -424 -5 -288 -90 -445 -366 -680 -173 -147 -238 -229 -277 -349 -19 -58
-22 -87 -32 -262 -7 -110 -29 -193 -80 -288 -57 -109 -99 -157 -241 -279 -33
-28 -103 -94 -156 -146 -141 -140 -185 -239 -188 -426 -1 -54 -4 -115 -7 -134
-23 -135 -79 -260 -161 -357 -43 -51 -46 -53 -95 -53 l-50 0 66 71 c133 144
167 236 180 494 7 132 21 187 68 278 33 65 63 103 143 182 55 55 125 120 155
145 99 81 188 180 227 254 20 39 38 76 40 81 19 66 33 158 37 248 9 172 22
226 83 334 34 62 170 208 243 263 18 14 77 68 130 120 157 154 202 258 213
495 9 166 13 188 63 291 48 102 113 181 230 281 12 10 45 38 73 61 120 103
190 182 234 267 17 33 32 62 32 65 1 3 7 23 13 45 16 56 21 95 27 215 6 120
11 157 31 219 39 117 128 229 304 381 260 224 321 336 334 612 3 59 8 126 12
150 7 48 84 216 111 244 17 17 18 16 21 -28 2 -33 -5 -65 -24 -110z m26 -755
c0 -29 -7 -60 -18 -78 -22 -35 -91 -105 -177 -178 -33 -29 -104 -96 -158 -149
-138 -138 -182 -236 -186 -413 -5 -299 -87 -453 -366 -691 -174 -148 -238
-229 -277 -349 -20 -62 -25 -98 -32 -250 -5 -118 -28 -202 -80 -300 -57 -109
-100 -158 -241 -279 -33 -28 -104 -95 -158 -148 -138 -138 -182 -236 -186
-413 -3 -170 -27 -272 -92 -391 -46 -83 -132 -177 -289 -315 -175 -153 -223
-215 -262 -334 -20 -62 -25 -97 -32 -250 -6 -115 -28 -202 -74 -290 -36 -69
-38 -70 -81 -73 l-43 -3 21 30 c38 53 89 174 100 236 5 33 13 110 16 170 5 98
9 128 29 213 21 89 157 261 291 367 90 71 230 219 264 279 59 106 73 165 86
381 7 123 21 179 67 268 33 65 63 103 143 182 55 55 123 119 150 141 130 107
195 184 245 289 44 91 57 154 65 307 5 95 10 137 29 216 3 12 24 56 46 98 40
72 167 212 249 274 84 63 229 218 265 283 20 37 39 75 42 85 21 83 33 164 38
257 7 153 19 206 70 302 49 91 114 168 222 260 12 10 44 37 71 60 94 80 177
167 208 221 11 18 23 32 27 32 4 0 8 -21 8 -47z m0 -344 c0 -35 -6 -45 -41
-77 -188 -167 -236 -235 -278 -397 -6 -22 -11 -85 -12 -140 -3 -184 -46 -316
-143 -445 -50 -67 -69 -86 -178 -180 -35 -30 -107 -99 -161 -152 -140 -140
-183 -236 -186 -424 -2 -96 -20 -213 -45 -284 -40 -115 -141 -238 -336 -410
-176 -155 -223 -215 -261 -331 -21 -66 -26 -101 -33 -254 -2 -49 -12 -119 -21
-155 -16 -64 -84 -203 -121 -250 -29 -36 -132 -136 -194 -188 -101 -84 -239
-230 -263 -279 -47 -93 -59 -144 -68 -290 -4 -78 -12 -159 -18 -180 -35 -135
-28 -123 -71 -123 l-38 0 19 52 c25 70 38 146 40 246 2 81 20 208 35 247 43
110 149 236 328 390 145 125 195 183 246 290 43 89 60 164 61 275 2 221 59
360 208 509 48 47 102 97 121 111 73 54 227 217 259 274 60 107 73 165 86 381
8 147 24 197 101 332 20 35 177 191 259 259 129 107 195 184 245 289 43 89 59
163 61 275 1 66 16 178 32 248 14 55 92 175 160 244 81 82 188 178 200 178 4
0 7 -18 7 -41z m0 -313 c0 -29 -7 -52 -20 -69 -29 -37 -75 -143 -88 -202 -6
-27 -13 -104 -16 -170 -12 -271 -86 -400 -376 -655 -181 -160 -223 -215 -265
-345 -18 -59 -25 -102 -26 -183 -1 -59 -8 -138 -16 -177 -14 -74 -73 -204
-120 -268 -31 -43 -169 -180 -223 -223 -19 -15 -76 -69 -127 -120 -138 -139
-171 -216 -184 -429 -10 -177 -29 -258 -88 -364 -49 -90 -133 -183 -291 -321
-235 -207 -284 -299 -293 -555 -3 -72 -8 -138 -12 -147 -5 -12 -18 -18 -40
-18 -32 0 -32 0 -25 39 4 22 8 80 9 128 2 90 14 183 30 241 32 108 141 247
296 377 116 97 230 218 264 281 61 111 72 160 86 389 7 134 20 178 77 279 40
71 155 194 287 306 138 117 190 179 241 285 44 92 60 165 60 281 0 250 90 418
330 614 104 85 225 214 259 275 59 108 78 187 82 328 3 134 24 232 66 315 37
72 97 152 114 152 5 0 9 -20 9 -44z m0 -826 c0 -37 -7 -74 -16 -93 -33 -63
-133 -171 -249 -267 -22 -18 -82 -76 -134 -128 -139 -140 -175 -227 -185 -457
-13 -273 -86 -401 -376 -655 -235 -207 -283 -297 -294 -555 -3 -71 -13 -157
-21 -190 -17 -61 -78 -184 -118 -237 -28 -36 -170 -177 -217 -214 -19 -15 -77
-70 -129 -122 -132 -133 -178 -239 -184 -422 l-2 -75 -34 -3 -34 -3 6 103 c8
154 19 196 79 303 40 71 150 187 288 305 124 106 178 166 224 253 60 109 73
169 77 342 4 190 60 323 194 459 44 45 105 101 135 126 30 25 93 83 140 130
127 126 185 245 195 399 19 288 21 297 87 417 40 71 148 185 287 304 133 113
190 179 234 272 18 37 35 67 40 67 4 1 7 -26 7 -59z m0 -386 c0 -39 0 -39
-147 -174 -168 -155 -218 -263 -227 -495 -6 -150 -26 -232 -81 -333 -57 -103
-112 -166 -245 -280 -160 -137 -289 -286 -306 -352 -2 -8 -10 -40 -18 -70 -8
-30 -17 -107 -20 -170 -3 -63 -8 -126 -10 -140 -42 -202 -119 -314 -366 -531
-111 -97 -135 -122 -192 -196 -50 -67 -98 -193 -98 -259 0 -32 -2 -34 -35 -34
-32 0 -35 3 -35 28 1 62 32 168 72 243 45 85 132 183 253 284 116 97 230 218
264 281 54 98 68 148 76 274 12 170 15 196 19 220 3 14 9 39 12 55 3 17 26 66
51 110 45 83 144 189 292 315 125 106 179 167 225 253 58 107 74 176 77 341 5
235 89 386 328 586 29 25 62 53 74 63 29 25 37 21 37 -19z m0 -303 c0 -30 -9
-50 -38 -88 -41 -53 -82 -119 -88 -143 -2 -8 -10 -40 -18 -70 -8 -30 -17 -107
-20 -170 -9 -176 -25 -243 -89 -358 -45 -80 -135 -179 -287 -312 -239 -210
-285 -297 -295 -555 -3 -88 -11 -152 -24 -198 -20 -68 -73 -175 -114 -229 -31
-40 -132 -142 -192 -191 -141 -118 -290 -289 -301 -346 -13 -67 -16 -71 -54
-71 l-38 0 13 49 c31 119 139 254 340 428 128 109 176 163 222 243 57 100 83
207 83 349 1 231 87 387 325 586 121 102 228 216 265 285 56 105 66 140 75
270 3 41 8 102 10 135 2 33 7 71 9 85 3 14 8 39 12 55 10 48 82 171 130 223
24 26 44 50 44 55 0 4 7 7 15 7 11 0 15 -11 15 -39z m-2 -706 l-3 -170 -34
-60 c-55 -96 -157 -209 -265 -295 -115 -91 -266 -268 -282 -330 -2 -8 -10 -41
-19 -72 -8 -32 -17 -106 -20 -165 -6 -172 -22 -237 -87 -358 -44 -81 -142
-189 -274 -302 -110 -94 -224 -217 -240 -257 -4 -11 -19 -16 -46 -16 l-39 0
33 61 c36 66 135 174 243 264 121 102 228 216 265 285 64 120 69 144 85 400 6
109 24 171 69 253 49 87 135 183 246 273 37 30 115 101 159 145 133 131 191
280 191 494 0 95 13 139 18 63 2 -23 2 -119 0 -213z m2 -515 c0 -43 -4 -48
-111 -140 -70 -61 -171 -163 -207 -209 -28 -37 -72 -131 -78 -168 -2 -16 -7
-35 -10 -43 -3 -8 -8 -71 -10 -140 -3 -69 -12 -150 -20 -180 -8 -30 -17 -63
-19 -73 -7 -33 -77 -151 -119 -202 -41 -50 -132 -138 -189 -185 -17 -14 -65
-58 -107 -97 -69 -67 -79 -72 -117 -73 -24 0 -43 2 -43 5 0 5 45 57 86 99 6 7
39 36 74 66 78 68 167 148 194 176 140 141 195 282 196 499 1 182 59 321 194
458 44 45 108 105 141 132 33 27 76 64 95 82 19 18 38 33 43 33 4 0 7 -18 7
-40z m0 -299 c0 -34 -8 -49 -51 -98 -64 -72 -97 -124 -120 -185 -9 -27 -16
-48 -14 -48 2 0 -1 -15 -6 -32 -5 -18 -11 -82 -14 -143 -8 -182 -19 -226 -88
-359 -43 -81 -138 -188 -267 -298 -51 -44 -59 -47 -109 -48 -63 0 -68 -9 54
94 142 121 232 221 275 309 22 45 43 92 45 105 3 12 7 32 10 45 3 12 8 72 11
132 8 162 29 257 74 341 22 38 49 81 60 95 43 50 123 129 132 129 4 0 8 -18 8
-39z m-3 -568 c-4 -191 -8 -238 -25 -289 -37 -112 -111 -224 -207 -316 -35
-33 -46 -38 -90 -38 l-50 0 70 69 c101 98 126 129 164 196 46 81 70 179 77
305 8 163 34 300 56 300 8 0 9 -66 5 -227z m3 -629 c0 -8 -9 -14 -20 -14 -17
0 -19 3 -8 19 13 21 28 19 28 -5z"/>
</g>
</svg>
